<svg width="394" height="554" viewBox="0 0 394 554" fill="none" xmlns="http://www.w3.org/2000/svg">
<circle cx="5" cy="453" r="5" fill="#141618" fill-opacity="0.17"/>
<circle cx="357" cy="453" r="5" fill="#141618" fill-opacity="0.17"/>
<circle cx="389" cy="453" r="5" fill="#141618" fill-opacity="0.17"/>
<circle cx="325" cy="453" r="5" fill="#141618" fill-opacity="0.17"/>
<circle cx="293" cy="453" r="5" fill="#141618" fill-opacity="0.17"/>
<circle cx="261" cy="453" r="5" fill="#141618" fill-opacity="0.17"/>
<circle cx="229" cy="453" r="5" fill="#141618" fill-opacity="0.17"/>
<circle cx="197" cy="453" r="5" fill="#141618" fill-opacity="0.17"/>
<circle cx="165" cy="453" r="5" fill="#141618" fill-opacity="0.17"/>
<circle cx="133" cy="453" r="5" fill="#141618" fill-opacity="0.17"/>
<circle cx="101" cy="453" r="5" fill="#141618" fill-opacity="0.17"/>
<circle cx="69" cy="453" r="5" fill="#141618" fill-opacity="0.17"/>
<circle cx="37" cy="453" r="5" fill="#141618" fill-opacity="0.17"/>
<circle cx="5" cy="421" r="5" fill="#141618" fill-opacity="0.17"/>
<circle cx="357" cy="421" r="5" fill="#141618" fill-opacity="0.17"/>
<circle cx="389" cy="421" r="5" fill="#141618" fill-opacity="0.17"/>
<circle cx="325" cy="421" r="5" fill="#141618" fill-opacity="0.17"/>
<circle cx="293" cy="421" r="5" fill="#141618" fill-opacity="0.17"/>
<circle cx="261" cy="421" r="5" fill="#141618" fill-opacity="0.17"/>
<circle cx="229" cy="421" r="5" fill="#141618" fill-opacity="0.17"/>
<circle cx="197" cy="421" r="5" fill="#141618" fill-opacity="0.17"/>
<circle cx="165" cy="421" r="5" fill="#141618" fill-opacity="0.17"/>
<circle cx="133" cy="421" r="5" fill="#141618" fill-opacity="0.17"/>
<circle cx="101" cy="421" r="5" fill="#141618" fill-opacity="0.17"/>
<circle cx="69" cy="421" r="5" fill="#141618" fill-opacity="0.17"/>
<circle cx="37" cy="421" r="5" fill="#141618" fill-opacity="0.17"/>
<circle cx="5" cy="389" r="5" fill="#141618" fill-opacity="0.17"/>
<circle cx="357" cy="389" r="5" fill="#141618" fill-opacity="0.17"/>
<circle cx="389" cy="389" r="5" fill="#141618" fill-opacity="0.17"/>
<circle cx="325" cy="389" r="5" fill="#141618" fill-opacity="0.17"/>
<circle cx="293" cy="389" r="5" fill="#141618" fill-opacity="0.17"/>
<circle cx="261" cy="389" r="5" fill="#141618" fill-opacity="0.17"/>
<circle cx="229" cy="389" r="5" fill="#141618" fill-opacity="0.17"/>
<circle cx="197" cy="389" r="5" fill="#141618" fill-opacity="0.17"/>
<circle cx="165" cy="389" r="5" fill="#141618" fill-opacity="0.17"/>
<circle cx="133" cy="389" r="5" fill="#141618" fill-opacity="0.17"/>
<circle cx="101" cy="389" r="5" fill="#141618" fill-opacity="0.17"/>
<circle cx="69" cy="389" r="5" fill="#141618" fill-opacity="0.17"/>
<circle cx="37" cy="389" r="5" fill="#141618" fill-opacity="0.17"/>
<circle cx="5" cy="549" r="5" fill="#141618" fill-opacity="0.17"/>
<circle cx="357" cy="549" r="5" fill="#141618" fill-opacity="0.17"/>
<circle cx="389" cy="549" r="5" fill="#141618" fill-opacity="0.17"/>
<circle cx="325" cy="549" r="5" fill="#141618" fill-opacity="0.17"/>
<circle cx="293" cy="549" r="5" fill="#141618" fill-opacity="0.17"/>
<circle cx="261" cy="549" r="5" fill="#141618" fill-opacity="0.17"/>
<circle cx="229" cy="549" r="5" fill="#141618" fill-opacity="0.17"/>
<circle cx="197" cy="549" r="5" fill="#141618" fill-opacity="0.17"/>
<circle cx="165" cy="549" r="5" fill="#141618" fill-opacity="0.17"/>
<circle cx="133" cy="549" r="5" fill="#141618" fill-opacity="0.17"/>
<circle cx="101" cy="549" r="5" fill="#141618" fill-opacity="0.17"/>
<circle cx="69" cy="549" r="5" fill="#141618" fill-opacity="0.17"/>
<circle cx="37" cy="549" r="5" fill="#141618" fill-opacity="0.17"/>
<circle cx="5" cy="517" r="5" fill="#141618" fill-opacity="0.17"/>
<circle cx="357" cy="517" r="5" fill="#141618" fill-opacity="0.17"/>
<circle cx="389" cy="517" r="5" fill="#141618" fill-opacity="0.17"/>
<circle cx="325" cy="517" r="5" fill="#141618" fill-opacity="0.17"/>
<circle cx="293" cy="517" r="5" fill="#141618" fill-opacity="0.17"/>
<circle cx="261" cy="517" r="5" fill="#141618" fill-opacity="0.17"/>
<circle cx="229" cy="517" r="5" fill="#141618" fill-opacity="0.17"/>
<circle cx="197" cy="517" r="5" fill="#141618" fill-opacity="0.17"/>
<circle cx="165" cy="517" r="5" fill="#141618" fill-opacity="0.17"/>
<circle cx="133" cy="517" r="5" fill="#141618" fill-opacity="0.17"/>
<circle cx="101" cy="517" r="5" fill="#141618" fill-opacity="0.17"/>
<circle cx="69" cy="517" r="5" fill="#141618" fill-opacity="0.17"/>
<circle cx="37" cy="517" r="5" fill="#141618" fill-opacity="0.17"/>
<circle cx="5" cy="485" r="5" fill="#141618" fill-opacity="0.17"/>
<circle cx="357" cy="485" r="5" fill="#141618" fill-opacity="0.17"/>
<circle cx="389" cy="485" r="5" fill="#141618" fill-opacity="0.17"/>
<circle cx="325" cy="485" r="5" fill="#141618" fill-opacity="0.17"/>
<circle cx="293" cy="485" r="5" fill="#141618" fill-opacity="0.17"/>
<circle cx="261" cy="485" r="5" fill="#141618" fill-opacity="0.17"/>
<circle cx="229" cy="485" r="5" fill="#141618" fill-opacity="0.17"/>
<circle cx="197" cy="485" r="5" fill="#141618" fill-opacity="0.17"/>
<circle cx="165" cy="485" r="5" fill="#141618" fill-opacity="0.17"/>
<circle cx="133" cy="485" r="5" fill="#141618" fill-opacity="0.17"/>
<circle cx="101" cy="485" r="5" fill="#141618" fill-opacity="0.17"/>
<circle cx="69" cy="485" r="5" fill="#141618" fill-opacity="0.17"/>
<circle cx="37" cy="485" r="5" fill="#141618" fill-opacity="0.17"/>
<circle cx="5" cy="357" r="5" fill="#141618" fill-opacity="0.17"/>
<circle cx="357" cy="357" r="5" fill="#141618" fill-opacity="0.17"/>
<circle cx="389" cy="357" r="5" fill="#141618" fill-opacity="0.17"/>
<circle cx="325" cy="357" r="5" fill="#141618" fill-opacity="0.17"/>
<circle cx="293" cy="357" r="5" fill="#141618" fill-opacity="0.17"/>
<circle cx="261" cy="357" r="5" fill="#141618" fill-opacity="0.17"/>
<circle cx="229" cy="357" r="5" fill="#141618" fill-opacity="0.17"/>
<circle cx="197" cy="357" r="5" fill="#141618" fill-opacity="0.17"/>
<circle cx="165" cy="357" r="5" fill="#141618" fill-opacity="0.17"/>
<circle cx="133" cy="357" r="5" fill="#141618" fill-opacity="0.17"/>
<circle cx="101" cy="357" r="5" fill="#141618" fill-opacity="0.17"/>
<circle cx="69" cy="357" r="5" fill="#141618" fill-opacity="0.17"/>
<circle cx="37" cy="357" r="5" fill="#141618" fill-opacity="0.17"/>
<circle cx="5" cy="325" r="5" fill="#141618" fill-opacity="0.17"/>
<circle cx="357" cy="325" r="5" fill="#141618" fill-opacity="0.17"/>
<circle cx="389" cy="325" r="5" fill="#141618" fill-opacity="0.17"/>
<circle cx="325" cy="325" r="5" fill="#141618" fill-opacity="0.17"/>
<circle cx="293" cy="325" r="5" fill="#141618" fill-opacity="0.17"/>
<circle cx="261" cy="325" r="5" fill="#141618" fill-opacity="0.17"/>
<circle cx="229" cy="325" r="5" fill="#141618" fill-opacity="0.17"/>
<circle cx="197" cy="325" r="5" fill="#141618" fill-opacity="0.17"/>
<circle cx="165" cy="325" r="5" fill="#141618" fill-opacity="0.17"/>
<circle cx="133" cy="325" r="5" fill="#141618" fill-opacity="0.17"/>
<circle cx="101" cy="325" r="5" fill="#141618" fill-opacity="0.17"/>
<circle cx="69" cy="325" r="5" fill="#141618" fill-opacity="0.17"/>
<circle cx="37" cy="325" r="5" fill="#141618" fill-opacity="0.17"/>
<circle cx="5" cy="293" r="5" fill="#141618" fill-opacity="0.17"/>
<circle cx="357" cy="293" r="5" fill="#141618" fill-opacity="0.17"/>
<circle cx="389" cy="293" r="5" fill="#141618" fill-opacity="0.17"/>
<circle cx="325" cy="293" r="5" fill="#141618" fill-opacity="0.17"/>
<circle cx="293" cy="293" r="5" fill="#141618" fill-opacity="0.17"/>
<circle cx="261" cy="293" r="5" fill="#141618" fill-opacity="0.17"/>
<circle cx="229" cy="293" r="5" fill="#141618" fill-opacity="0.17"/>
<circle cx="197" cy="293" r="5" fill="#141618" fill-opacity="0.17"/>
<circle cx="165" cy="293" r="5" fill="#141618" fill-opacity="0.17"/>
<circle cx="133" cy="293" r="5" fill="#141618" fill-opacity="0.17"/>
<circle cx="101" cy="293" r="5" fill="#141618" fill-opacity="0.17"/>
<circle cx="69" cy="293" r="5" fill="#141618" fill-opacity="0.17"/>
<circle cx="37" cy="293" r="5" fill="#141618" fill-opacity="0.17"/>
<circle cx="5" cy="261" r="5" fill="#141618" fill-opacity="0.17"/>
<circle cx="357" cy="261" r="5" fill="#141618" fill-opacity="0.17"/>
<circle cx="389" cy="261" r="5" fill="#141618" fill-opacity="0.17"/>
<circle cx="325" cy="261" r="5" fill="#141618" fill-opacity="0.17"/>
<circle cx="293" cy="261" r="5" fill="#141618" fill-opacity="0.17"/>
<circle cx="261" cy="261" r="5" fill="#141618" fill-opacity="0.17"/>
<circle cx="229" cy="261" r="5" fill="#141618" fill-opacity="0.17"/>
<circle cx="197" cy="261" r="5" fill="#141618" fill-opacity="0.17"/>
<circle cx="165" cy="261" r="5" fill="#141618" fill-opacity="0.17"/>
<circle cx="133" cy="261" r="5" fill="#141618" fill-opacity="0.17"/>
<circle cx="101" cy="261" r="5" fill="#141618" fill-opacity="0.17"/>
<circle cx="69" cy="261" r="5" fill="#141618" fill-opacity="0.17"/>
<circle cx="37" cy="261" r="5" fill="#141618" fill-opacity="0.17"/>
<circle cx="5" cy="229" r="5" fill="#141618" fill-opacity="0.17"/>
<circle cx="357" cy="229" r="5" fill="#141618" fill-opacity="0.17"/>
<circle cx="389" cy="229" r="5" fill="#141618" fill-opacity="0.17"/>
<circle cx="325" cy="229" r="5" fill="#141618" fill-opacity="0.17"/>
<circle cx="293" cy="229" r="5" fill="#141618" fill-opacity="0.17"/>
<circle cx="261" cy="229" r="5" fill="#141618" fill-opacity="0.17"/>
<circle cx="229" cy="229" r="5" fill="#141618" fill-opacity="0.17"/>
<circle cx="197" cy="229" r="5" fill="#141618" fill-opacity="0.17"/>
<circle cx="165" cy="229" r="5" fill="#141618" fill-opacity="0.17"/>
<circle cx="133" cy="229" r="5" fill="#141618" fill-opacity="0.17"/>
<circle cx="101" cy="229" r="5" fill="#141618" fill-opacity="0.17"/>
<circle cx="69" cy="229" r="5" fill="#141618" fill-opacity="0.17"/>
<circle cx="37" cy="229" r="5" fill="#141618" fill-opacity="0.17"/>
<circle cx="5" cy="197" r="5" fill="#141618" fill-opacity="0.17"/>
<circle cx="357" cy="197" r="5" fill="#141618" fill-opacity="0.17"/>
<circle cx="389" cy="197" r="5" fill="#141618" fill-opacity="0.17"/>
<circle cx="325" cy="197" r="5" fill="#141618" fill-opacity="0.17"/>
<circle cx="293" cy="197" r="5" fill="#141618" fill-opacity="0.17"/>
<circle cx="261" cy="197" r="5" fill="#141618" fill-opacity="0.17"/>
<circle cx="229" cy="197" r="5" fill="#141618" fill-opacity="0.17"/>
<circle cx="197" cy="197" r="5" fill="#141618" fill-opacity="0.17"/>
<circle cx="165" cy="197" r="5" fill="#141618" fill-opacity="0.17"/>
<circle cx="133" cy="197" r="5" fill="#141618" fill-opacity="0.17"/>
<circle cx="101" cy="197" r="5" fill="#141618" fill-opacity="0.17"/>
<circle cx="69" cy="197" r="5" fill="#141618" fill-opacity="0.17"/>
<circle cx="37" cy="197" r="5" fill="#141618" fill-opacity="0.17"/>
<circle cx="5" cy="165" r="5" fill="#141618" fill-opacity="0.17"/>
<circle cx="357" cy="165" r="5" fill="#141618" fill-opacity="0.17"/>
<circle cx="389" cy="165" r="5" fill="#141618" fill-opacity="0.17"/>
<circle cx="325" cy="165" r="5" fill="#141618" fill-opacity="0.17"/>
<circle cx="293" cy="165" r="5" fill="#141618" fill-opacity="0.17"/>
<circle cx="261" cy="165" r="5" fill="#141618" fill-opacity="0.17"/>
<circle cx="229" cy="165" r="5" fill="#141618" fill-opacity="0.17"/>
<circle cx="197" cy="165" r="5" fill="#141618" fill-opacity="0.17"/>
<circle cx="165" cy="165" r="5" fill="#141618" fill-opacity="0.17"/>
<circle cx="133" cy="165" r="5" fill="#141618" fill-opacity="0.17"/>
<circle cx="101" cy="165" r="5" fill="#141618" fill-opacity="0.17"/>
<circle cx="69" cy="165" r="5" fill="#141618" fill-opacity="0.17"/>
<circle cx="37" cy="165" r="5" fill="#141618" fill-opacity="0.17"/>
<circle cx="5" cy="133" r="5" fill="#141618" fill-opacity="0.17"/>
<circle cx="357" cy="133" r="5" fill="#141618" fill-opacity="0.17"/>
<circle cx="389" cy="133" r="5" fill="#141618" fill-opacity="0.17"/>
<circle cx="325" cy="133" r="5" fill="#141618" fill-opacity="0.17"/>
<circle cx="293" cy="133" r="5" fill="#141618" fill-opacity="0.17"/>
<circle cx="261" cy="133" r="5" fill="#141618" fill-opacity="0.17"/>
<circle cx="229" cy="133" r="5" fill="#141618" fill-opacity="0.17"/>
<circle cx="197" cy="133" r="5" fill="#141618" fill-opacity="0.17"/>
<circle cx="165" cy="133" r="5" fill="#141618" fill-opacity="0.17"/>
<circle cx="133" cy="133" r="5" fill="#141618" fill-opacity="0.17"/>
<circle cx="101" cy="133" r="5" fill="#141618" fill-opacity="0.17"/>
<circle cx="69" cy="133" r="5" fill="#141618" fill-opacity="0.17"/>
<circle cx="37" cy="133" r="5" fill="#141618" fill-opacity="0.17"/>
<circle cx="5" cy="101" r="5" fill="#141618" fill-opacity="0.17"/>
<circle cx="357" cy="101" r="5" fill="#141618" fill-opacity="0.17"/>
<circle cx="389" cy="101" r="5" fill="#141618" fill-opacity="0.17"/>
<circle cx="325" cy="101" r="5" fill="#141618" fill-opacity="0.17"/>
<circle cx="293" cy="101" r="5" fill="#141618" fill-opacity="0.17"/>
<circle cx="261" cy="101" r="5" fill="#141618" fill-opacity="0.17"/>
<circle cx="229" cy="101" r="5" fill="#141618" fill-opacity="0.17"/>
<circle cx="197" cy="101" r="5" fill="#141618" fill-opacity="0.17"/>
<circle cx="165" cy="101" r="5" fill="#141618" fill-opacity="0.17"/>
<circle cx="133" cy="101" r="5" fill="#141618" fill-opacity="0.17"/>
<circle cx="101" cy="101" r="5" fill="#141618" fill-opacity="0.17"/>
<circle cx="69" cy="101" r="5" fill="#141618" fill-opacity="0.17"/>
<circle cx="37" cy="101" r="5" fill="#141618" fill-opacity="0.17"/>
<circle cx="5" cy="69" r="5" fill="#141618" fill-opacity="0.17"/>
<circle cx="357" cy="69" r="5" fill="#141618" fill-opacity="0.17"/>
<circle cx="389" cy="69" r="5" fill="#141618" fill-opacity="0.17"/>
<circle cx="325" cy="69" r="5" fill="#141618" fill-opacity="0.17"/>
<circle cx="293" cy="69" r="5" fill="#141618" fill-opacity="0.17"/>
<circle cx="261" cy="69" r="5" fill="#141618" fill-opacity="0.17"/>
<circle cx="229" cy="69" r="5" fill="#141618" fill-opacity="0.17"/>
<circle cx="197" cy="69" r="5" fill="#141618" fill-opacity="0.17"/>
<circle cx="165" cy="69" r="5" fill="#141618" fill-opacity="0.17"/>
<circle cx="133" cy="69" r="5" fill="#141618" fill-opacity="0.17"/>
<circle cx="101" cy="69" r="5" fill="#141618" fill-opacity="0.17"/>
<circle cx="69" cy="69" r="5" fill="#141618" fill-opacity="0.17"/>
<circle cx="37" cy="69" r="5" fill="#141618" fill-opacity="0.17"/>
<circle cx="5" cy="37" r="5" fill="#141618" fill-opacity="0.17"/>
<circle cx="357" cy="37" r="5" fill="#141618" fill-opacity="0.17"/>
<circle cx="389" cy="37" r="5" fill="#141618" fill-opacity="0.17"/>
<circle cx="325" cy="37" r="5" fill="#141618" fill-opacity="0.17"/>
<circle cx="293" cy="37" r="5" fill="#141618" fill-opacity="0.17"/>
<circle cx="261" cy="37" r="5" fill="#141618" fill-opacity="0.17"/>
<circle cx="229" cy="37" r="5" fill="#141618" fill-opacity="0.17"/>
<circle cx="197" cy="37" r="5" fill="#141618" fill-opacity="0.17"/>
<circle cx="165" cy="37" r="5" fill="#141618" fill-opacity="0.17"/>
<circle cx="133" cy="37" r="5" fill="#141618" fill-opacity="0.17"/>
<circle cx="101" cy="37" r="5" fill="#141618" fill-opacity="0.17"/>
<circle cx="69" cy="37" r="5" fill="#141618" fill-opacity="0.17"/>
<circle cx="37" cy="37" r="5" fill="#141618" fill-opacity="0.17"/>
<circle cx="5" cy="5" r="5" fill="#141618" fill-opacity="0.17"/>
<circle cx="357" cy="5" r="5" fill="#141618" fill-opacity="0.17"/>
<circle cx="389" cy="5" r="5" fill="#141618" fill-opacity="0.17"/>
<circle cx="325" cy="5" r="5" fill="#141618" fill-opacity="0.17"/>
<circle cx="293" cy="5" r="5" fill="#141618" fill-opacity="0.17"/>
<circle cx="261" cy="5" r="5" fill="#141618" fill-opacity="0.17"/>
<circle cx="229" cy="5" r="5" fill="#141618" fill-opacity="0.17"/>
<circle cx="197" cy="5" r="5" fill="#141618" fill-opacity="0.17"/>
<circle cx="165" cy="5" r="5" fill="#141618" fill-opacity="0.17"/>
<circle cx="133" cy="5" r="5" fill="#141618" fill-opacity="0.17"/>
<circle cx="101" cy="5" r="5" fill="#141618" fill-opacity="0.17"/>
<circle cx="69" cy="5" r="5" fill="#141618" fill-opacity="0.17"/>
<circle cx="37" cy="5" r="5" fill="#141618" fill-opacity="0.17"/>
</svg>
